<svg width="20" height="20" viewBox="0 0 20 20" fill="none" xmlns="http://www.w3.org/2000/svg">
<path d="M18.5 10C18.5 14.4064 15.1476 18.0274 10.8557 18.4569C10.5746 18.4853 10.289 18.5 10 18.5C9.711 18.5 9.4254 18.4853 9.14433 18.4569C4.8524 18.0274 1.5 14.4064 1.5 10C1.5 5.5936 4.8524 1.9726 9.14433 1.54307C9.4254 1.51473 9.711 1.5 10 1.5C10.289 1.5 10.5746 1.51473 10.8557 1.54307C15.1476 1.9726 18.5 5.5936 18.5 10ZM2.22647 9.6464H5.4066C5.4474 8.3986 5.70467 7.20633 6.13987 6.10473H3.25893C2.65033 7.1542 2.28427 8.35893 2.22647 9.6464ZM17.7735 10.3547H14.5934C14.5526 11.6014 14.2953 12.7937 13.8601 13.8953H16.7411C17.3497 12.8458 17.7157 11.6411 17.7735 10.3547ZM13.876 10.3547H10.3547V13.8953H13.0759C13.5428 12.8005 13.8318 11.6105 13.876 10.3547ZM10.3547 14.6036V17.5899C11.3362 16.7649 12.1454 15.7483 12.7449 14.6036H10.3547ZM9.6464 17.5899V14.6036H7.25507C7.85573 15.7483 8.6638 16.7649 9.6464 17.5899ZM9.6464 13.8953V10.3547H6.124C6.1682 11.6105 6.4572 12.8005 6.92413 13.8953H9.6464ZM5.4066 10.3547H2.22647C2.28427 11.6411 2.65033 12.8458 3.25893 13.8953H6.13987C5.70467 12.7937 5.4474 11.6014 5.4066 10.3547ZM6.124 9.6464H9.6464V6.10473H6.92413C6.4572 7.19953 6.1682 8.38953 6.124 9.6464ZM9.6464 5.3964V2.41007C8.6638 3.23513 7.85573 4.25173 7.25507 5.3964H9.6464ZM10.3547 2.41007V5.3964H12.7449C12.1454 4.25173 11.3362 3.23513 10.3547 2.41007ZM10.3547 6.10473V9.6464H13.876C13.8318 8.38953 13.5428 7.19953 13.0759 6.10473H10.3547ZM14.5934 9.6464H17.7735C17.7157 8.35893 17.3497 7.1542 16.7411 6.10473H13.8601C14.2953 7.20633 14.5526 8.3986 14.5934 9.6464ZM16.2753 14.6036H13.5496C12.9931 15.7585 12.2349 16.7955 11.3203 17.6715C13.349 17.3247 15.1057 16.1971 16.2753 14.6036ZM8.67967 17.6715C7.76507 16.7955 7.00687 15.7585 6.4504 14.6036H3.72473C4.89433 16.1971 6.651 17.3247 8.67967 17.6715ZM3.72473 5.3964H6.4504C7.00687 4.24153 7.76507 3.20453 8.67967 2.32847C6.651 2.67527 4.89433 3.80293 3.72473 5.3964ZM11.3203 2.32847C12.2349 3.20453 12.9931 4.24153 13.5496 5.3964H16.2753C15.1057 3.80293 13.349 2.67527 11.3203 2.32847Z" fill="#F84447" stroke="#F84447" stroke-width="0.3"/>
</svg>
