<svg width="20" height="20" viewBox="0 0 20 20" fill="none" xmlns="http://www.w3.org/2000/svg">
<path d="M17.15 14.2827C17.0646 14.4248 16.9264 14.5273 16.7655 14.5674C16.6047 14.6076 16.4345 14.5823 16.2924 14.497C16.1502 14.4117 16.0478 14.2734 16.0076 14.1125C15.9674 13.9517 15.9928 13.7815 16.0781 13.6394C16.738 12.5403 17.0855 11.282 17.0833 9.99999C17.0833 6.08791 13.912 2.91666 9.99996 2.91666C6.08788 2.91666 2.91663 6.08791 2.91663 9.99999C2.91663 13.9121 6.08788 17.0833 9.99996 17.0833C11.2818 17.0856 12.5399 16.7382 13.6389 16.0785C13.7093 16.0363 13.7873 16.0084 13.8685 15.9963C13.9497 15.9842 14.0324 15.9882 14.1121 16.0081C14.1917 16.028 14.2666 16.0634 14.3326 16.1123C14.3985 16.1612 14.4542 16.2225 14.4964 16.2929C14.5386 16.3633 14.5666 16.4413 14.5787 16.5225C14.5908 16.6037 14.5867 16.6864 14.5668 16.7661C14.5469 16.8457 14.5115 16.9206 14.4627 16.9866C14.4138 17.0525 14.3524 17.1082 14.282 17.1504C12.9888 17.9266 11.5083 18.3356 9.99996 18.3333C5.39767 18.3333 1.66663 14.6023 1.66663 9.99999C1.66663 5.3977 5.39767 1.66666 9.99996 1.66666C14.6022 1.66666 18.3333 5.3977 18.3333 9.99999C18.3333 11.5292 17.9202 12.9994 17.15 14.2827ZM6.43308 12.6831L9.37496 9.74103V6.24999C9.37496 6.08423 9.44081 5.92526 9.55802 5.80805C9.67523 5.69084 9.8342 5.62499 9.99996 5.62499C10.1657 5.62499 10.3247 5.69084 10.4419 5.80805C10.5591 5.92526 10.625 6.08423 10.625 6.24999V9.99999C10.6249 10.1657 10.5591 10.3247 10.4418 10.4419L7.31683 13.5669C7.25918 13.6266 7.19021 13.6742 7.11396 13.7069C7.03771 13.7397 6.9557 13.7569 6.87271 13.7576C6.78972 13.7584 6.70742 13.7426 6.63061 13.7111C6.5538 13.6797 6.48402 13.6333 6.42534 13.5746C6.36665 13.5159 6.32025 13.4461 6.28882 13.3693C6.25739 13.2925 6.24158 13.2102 6.2423 13.1272C6.24302 13.0443 6.26026 12.9622 6.29302 12.886C6.32578 12.8097 6.37339 12.7408 6.43308 12.6831Z" fill="#0FF082"/>
</svg>
