<svg width="22" height="20" viewBox="0 0 22 20" fill="none" xmlns="http://www.w3.org/2000/svg">
<path d="M11.0012 11.0908C10.9012 11.0908 10.8023 11.0688 10.7115 11.0263L0.902794 6.43438C0.782562 6.37811 0.680719 6.28799 0.60933 6.17469C0.537942 6.0614 0.5 5.92968 0.5 5.79514C0.5 5.66061 0.537942 5.52889 0.60933 5.4156C0.680719 5.3023 0.782562 5.21218 0.902794 5.15591L10.7115 0.563999C10.802 0.521829 10.9004 0.5 11 0.5C11.0996 0.5 11.198 0.521829 11.2885 0.563999L21.0972 5.15591C21.2174 5.21218 21.3193 5.3023 21.3907 5.4156C21.4621 5.52889 21.5 5.66061 21.5 5.79514C21.5 5.92968 21.4621 6.0614 21.3907 6.17469C21.3193 6.28799 21.2174 6.37811 21.0972 6.43438L11.2885 11.0263C11.1984 11.0685 11.1004 11.0905 11.0012 11.0908ZM2.84723 5.79514L11.0012 9.61177L19.1551 5.79514L11.0012 1.97852L2.84723 5.79514ZM20.4637 13.5914L11.0012 18.0215L1.53863 13.5914V15.1408L10.7115 19.436C10.802 19.4782 10.9004 19.5 11 19.5C11.0996 19.5 11.198 19.4782 11.2885 19.436L20.4637 15.1408V13.5914Z" fill="#4F5671" stroke="#4F5671" stroke-width="0.2"/>
<path d="M20.4637 9.38187L11.0012 13.8131L1.53864 9.38187V10.9383L10.7115 15.2323C10.802 15.2745 10.9004 15.2963 11 15.2963C11.0996 15.2963 11.198 15.2745 11.2885 15.2323L20.4637 10.9383V9.38187Z" fill="#4F5671" stroke="#4F5671" stroke-width="0.2"/>
</svg>
