<svg width="20" height="20" viewBox="0 0 20 20" fill="none" xmlns="http://www.w3.org/2000/svg">
<path d="M10 7.00162C9.91406 7.00162 9.82897 6.985 9.74958 6.95271C9.67019 6.92042 9.59805 6.87309 9.53729 6.81343C9.47652 6.75377 9.42832 6.68294 9.39544 6.60498C9.36255 6.52703 9.34562 6.44348 9.34562 6.35911V5.07274C9.34562 4.90233 9.41457 4.73891 9.53729 4.61841C9.66 4.49792 9.82645 4.43023 10 4.43023C10.1735 4.43023 10.34 4.49792 10.4627 4.61841C10.5854 4.73891 10.6544 4.90233 10.6544 5.07274V6.35911C10.6544 6.44348 10.6374 6.52703 10.6046 6.60498C10.5717 6.68294 10.5235 6.75377 10.4627 6.81343C10.4019 6.87309 10.3298 6.92042 10.2504 6.95271C10.171 6.985 10.0859 7.00162 10 7.00162ZM5.8337 6.50054L6.7597 7.40975C6.8205 7.46945 6.86873 7.54033 6.90164 7.61833C6.93454 7.69633 6.95148 7.77993 6.95148 7.86436C6.95148 7.94879 6.93454 8.03239 6.90164 8.11039C6.86873 8.18839 6.8205 8.25927 6.7597 8.31897C6.6989 8.37867 6.62671 8.42602 6.54727 8.45833C6.46783 8.49064 6.38269 8.50727 6.2967 8.50727C6.21071 8.50727 6.12557 8.49064 6.04613 8.45833C5.96669 8.42602 5.8945 8.37867 5.8337 8.31897L4.90771 7.40975C4.84691 7.35005 4.79868 7.27918 4.76577 7.20118C4.73286 7.12318 4.71593 7.03957 4.71593 6.95515C4.71593 6.87072 4.73286 6.78712 4.76577 6.70911C4.79868 6.63111 4.84691 6.56024 4.90771 6.50054C4.96851 6.44084 5.04069 6.39348 5.12013 6.36117C5.19957 6.32886 5.28472 6.31223 5.37071 6.31223C5.45669 6.31223 5.54184 6.32886 5.62128 6.36117C5.70072 6.39348 5.7729 6.44084 5.8337 6.50054ZM4.76229 10.858C4.93602 10.858 5.10264 10.9258 5.22549 11.0464C5.34833 11.167 5.41735 11.3306 5.41735 11.5012C5.41735 11.6718 5.34833 11.8354 5.22549 11.956C5.10264 12.0766 4.93602 12.1444 4.76229 12.1444H3.45218C3.27845 12.1444 3.11183 12.0766 2.98899 11.956C2.86614 11.8354 2.79712 11.6718 2.79712 11.5012C2.79712 11.3306 2.86614 11.167 2.98899 11.0464C3.11183 10.9258 3.27845 10.858 3.45218 10.858H4.76229ZM16.5464 10.858C16.7202 10.858 16.8868 10.9258 17.0096 11.0464C17.1325 11.167 17.2015 11.3306 17.2015 11.5012C17.2015 11.6718 17.1325 11.8354 17.0096 11.956C16.8868 12.0766 16.7202 12.1444 16.5464 12.1444H15.2377C15.064 12.1444 14.8974 12.0766 14.7745 11.956C14.6517 11.8354 14.5826 11.6718 14.5826 11.5012C14.5826 11.3306 14.6517 11.167 14.7745 11.0464C14.8974 10.9258 15.064 10.858 15.2377 10.858H16.5478H16.5464ZM15.0923 6.50189C15.2148 6.62235 15.2835 6.78561 15.2835 6.95582C15.2835 7.12603 15.2148 7.28929 15.0923 7.40975L14.1663 8.31897C14.1056 8.37887 14.0335 8.42642 13.954 8.45886C13.8745 8.4913 13.7893 8.508 13.7033 8.508C13.6172 8.508 13.532 8.4913 13.4526 8.45886C13.3731 8.42642 13.301 8.37887 13.2403 8.31897C13.1794 8.25929 13.1312 8.18843 13.0982 8.11042C13.0653 8.03242 13.0483 7.9488 13.0483 7.86436C13.0483 7.77992 13.0653 7.6963 13.0982 7.6183C13.1312 7.54029 13.1794 7.46943 13.2403 7.40975L14.1663 6.50054C14.2271 6.44079 14.2992 6.39339 14.3787 6.36105C14.4581 6.32871 14.5433 6.31207 14.6293 6.31207C14.7153 6.31207 14.8004 6.32871 14.8799 6.36105C14.9593 6.39339 15.0315 6.44079 15.0923 6.50054V6.50189ZM16.2076 16.2163C17.2756 14.8685 17.8558 13.2096 17.8566 11.5019C17.8544 9.45649 17.026 7.49547 15.5531 6.04903C14.0802 4.60259 12.0831 3.78886 10 3.78637C7.91685 3.78886 5.91977 4.60259 4.44689 6.04903C2.97402 7.49547 2.14562 9.45649 2.14344 11.5019C2.14344 13.2112 2.7251 14.8653 3.7924 16.2163H16.2076ZM10 2.5C11.2038 2.5 12.3958 2.73281 13.5079 3.18513C14.6201 3.63744 15.6306 4.30042 16.4818 5.1362C17.333 5.97197 18.0082 6.96419 18.4689 8.05618C18.9296 9.14818 19.1667 10.3186 19.1667 11.5005C19.1667 13.8079 18.275 15.9079 16.8181 17.5H3.18193C1.66979 15.8545 0.832957 13.7168 0.833328 11.5005C0.833328 9.11345 1.7991 6.82413 3.51818 5.1362C5.23727 3.44827 7.56884 2.5 10 2.5ZM9.38267 10.8944C9.72288 10.559 11.2017 9.64979 11.5433 9.98518C11.8835 10.3192 10.9575 11.7713 10.6173 12.1067C10.5363 12.1863 10.44 12.2494 10.3341 12.2925C10.2282 12.3356 10.1146 12.3578 10 12.3578C9.88535 12.3578 9.77182 12.3356 9.6659 12.2925C9.55998 12.2494 9.46373 12.1863 9.38267 12.1067C9.3016 12.0271 9.23729 11.9326 9.19341 11.8286C9.14954 11.7246 9.12696 11.6131 9.12696 11.5005C9.12696 11.388 9.14954 11.2765 9.19341 11.1725C9.23729 11.0685 9.3016 10.974 9.38267 10.8944Z" fill="#F84447"/>
</svg>
