<svg width="18" height="16" viewBox="0 0 18 16" fill="none" xmlns="http://www.w3.org/2000/svg">
<path fill-rule="evenodd" clip-rule="evenodd" d="M3.15625 2.02344C2.42392 2.02344 1.82812 2.61923 1.82812 3.35156V12.6484C1.82812 13.3808 2.42392 13.9766 3.15625 13.9766H14.8438C15.5761 13.9766 16.1719 13.3808 16.1719 12.6484V11.1211H10.9922C9.89194 11.1211 9 10.2292 9 9.12891V6.87109C9 5.77084 9.89194 4.87891 10.9922 4.87891H16.1719V3.35156C16.1719 2.61923 15.5761 2.02344 14.8438 2.02344H3.15625ZM10.9922 6.20703H16.1719V9.79297H10.9922C10.626 9.79297 10.3281 9.49507 10.3281 9.12891V6.87109C10.3281 6.50493 10.626 6.20703 10.9922 6.20703ZM17.5 12.6484V11.1211V4.87891V3.35156C17.5 1.88455 16.3108 0.695312 14.8438 0.695312H3.15625C1.68924 0.695312 0.5 1.88455 0.5 3.35156V12.6484C0.5 14.1155 1.68924 15.3047 3.15625 15.3047H14.8438C16.3108 15.3047 17.5 14.1155 17.5 12.6484ZM15.2127 7.44785C15.1035 7.37488 14.9751 7.33594 14.8438 7.33594C14.6676 7.33594 14.4987 7.4059 14.3742 7.53044C14.2497 7.65497 14.1797 7.82388 14.1797 8C14.1797 8.13134 14.2186 8.25973 14.2916 8.36893C14.3646 8.47814 14.4683 8.56325 14.5896 8.61351C14.711 8.66378 14.8445 8.67693 14.9733 8.6513C15.1021 8.62568 15.2204 8.56243 15.3133 8.46956C15.4062 8.37669 15.4694 8.25837 15.4951 8.12955C15.5207 8.00074 15.5075 7.86722 15.4573 7.74587C15.407 7.62453 15.3219 7.52082 15.2127 7.44785Z" fill="#0FF082"/>
</svg>
