<svg width="15" height="20" viewBox="0 0 15 20" fill="none" xmlns="http://www.w3.org/2000/svg">
<path fill-rule="evenodd" clip-rule="evenodd" d="M1.57895 0H13.4211C13.8398 0 14.2414 0.162087 14.5375 0.450605C14.8336 0.739122 15 1.13044 15 1.53846V3.46577C14.9999 4.79666 14.4939 6.08035 13.5797 7.06923L10.8695 10.0012L13.5789 12.93C14.4588 13.8814 14.9619 15.1071 14.998 16.3873L15 16.535V18.4615C15 18.8696 14.8336 19.2609 14.5375 19.5494C14.2414 19.8379 13.8398 20 13.4211 20H1.57895C1.16018 20 0.758573 19.8379 0.462463 19.5494C0.166353 19.2609 0 18.8696 0 18.4615V16.5346C0.000179149 15.2032 0.506423 13.9191 1.42105 12.93L4.13013 10.0012L1.42026 7.06923C0.54099 6.11817 0.038175 4.89302 0.00197354 3.61346L0 3.46577V1.53846C0 1.13044 0.166353 0.739122 0.462463 0.450605C0.758573 0.162087 1.16018 0 1.57895 0ZM13.4211 1.53846H1.57895V3.46538C1.57888 4.41627 1.94028 5.33347 2.59342 6.04L5.77974 9.48692C5.91033 9.6282 5.9826 9.8116 5.9826 10.0017C5.9826 10.1919 5.91033 10.3753 5.77974 10.5165L2.59421 13.96C1.94092 14.6665 1.57895 15.5842 1.57895 16.535V18.4615H13.4211V16.535C13.4209 15.5839 13.0592 14.6666 12.4058 13.96L9.22026 10.5165C9.08967 10.3753 9.0174 10.1919 9.0174 10.0017C9.0174 9.8116 9.08967 9.6282 9.22026 9.48692L12.4066 6.04C13.0595 5.33346 13.4211 4.41615 13.4211 3.46577V1.53846ZM11.4475 16.1538V15.3846H3.55273V16.1538C3.55273 16.2549 3.57315 16.3549 3.61283 16.4482C3.6525 16.5415 3.71066 16.6263 3.78397 16.6978C3.85728 16.7692 3.94431 16.8259 4.04009 16.8645C4.13587 16.9032 4.23853 16.9231 4.34221 16.9231H10.658C10.7617 16.9231 10.8643 16.9032 10.9601 16.8645C11.0559 16.8259 11.1429 16.7692 11.2162 16.6978C11.2895 16.6263 11.3477 16.5415 11.3874 16.4482C11.4271 16.3549 11.4475 16.2549 11.4475 16.1538Z" fill="#4F5671"/>
</svg>
