<svg width="20" height="18" viewBox="0 0 20 18" fill="none" xmlns="http://www.w3.org/2000/svg">
<path d="M18.9347 1H1.06529C0.753086 1 0.5 1.25309 0.5 1.56529V13.666C0.5 13.9782 0.753086 14.2313 1.06529 14.2313H7.28345V15.9836H5.212C4.8998 15.9836 4.64671 16.2367 4.64671 16.5489C4.64671 16.8611 4.8998 17.1142 5.212 17.1142H14.7883C15.1005 17.1142 15.3536 16.8611 15.3536 16.5489C15.3536 16.2367 15.1005 15.9836 14.7883 15.9836H12.7169V14.2313H18.9347C19.2469 14.2313 19.5 13.9782 19.5 13.666V1.56529C19.5 1.25309 19.2469 1 18.9347 1V1ZM11.5862 15.9836H8.41398V14.2313H11.5862V15.9836ZM18.3694 13.1007H1.63057V12.1379H18.3694V13.1007H18.3694ZM18.3694 11.0073H1.63057V2.13057H18.3694V11.0073H18.3694Z" fill="#4F5671" stroke="#4F5671" stroke-width="0.3"/>
</svg>
