<svg width="20" height="20" viewBox="0 0 20 20" fill="none" xmlns="http://www.w3.org/2000/svg">
<path d="M18.58 15.1392C18.4776 15.3098 18.3117 15.4327 18.1187 15.481C17.9257 15.5292 17.7214 15.4987 17.5509 15.3964C17.3803 15.294 17.2574 15.1281 17.2092 14.9351C17.161 14.7421 17.1914 14.5378 17.2937 14.3672C18.0856 13.0483 18.5027 11.5384 18.5 10C18.5 5.3055 14.6945 1.5 10 1.5C5.3055 1.5 1.5 5.3055 1.5 10C1.5 14.6945 5.3055 18.5 10 18.5C11.5382 18.5027 13.0479 18.0858 14.3667 17.2942C14.4512 17.2436 14.5448 17.21 14.6422 17.1955C14.7397 17.181 14.839 17.1859 14.9345 17.2098C15.0301 17.2336 15.12 17.2761 15.1991 17.3348C15.2783 17.3934 15.3451 17.467 15.3958 17.5515C15.4464 17.636 15.48 17.7296 15.4945 17.827C15.509 17.9244 15.5041 18.0237 15.4802 18.1193C15.4563 18.2148 15.4139 18.3047 15.3552 18.3839C15.2966 18.463 15.223 18.5298 15.1385 18.5805C13.5865 19.512 11.81 20.0027 10 20C4.47725 20 0 15.5227 0 10C0 4.47725 4.47725 0 10 0C15.5227 0 20 4.47725 20 10C20 11.835 19.5042 13.5992 18.58 15.1392ZM5.71975 13.2197L9.25 9.68925V5.5C9.25 5.30109 9.32902 5.11032 9.46967 4.96967C9.61032 4.82902 9.80109 4.75 10 4.75C10.1989 4.75 10.3897 4.82902 10.5303 4.96967C10.671 5.11032 10.75 5.30109 10.75 5.5V10C10.75 10.1989 10.6709 10.3896 10.5302 10.5302L6.78025 14.2802C6.71106 14.3519 6.62831 14.409 6.5368 14.4483C6.4453 14.4876 6.34688 14.5083 6.2473 14.5092C6.14772 14.5101 6.04896 14.4911 5.95678 14.4534C5.86461 14.4157 5.78087 14.36 5.71045 14.2895C5.64003 14.2191 5.58434 14.1354 5.54663 14.0432C5.50892 13.951 5.48995 13.8523 5.49081 13.7527C5.49168 13.6531 5.51237 13.5547 5.55167 13.4632C5.59098 13.3717 5.64812 13.2889 5.71975 13.2197Z" fill="#4F5671"/>
</svg>
