<svg width="22" height="22" viewBox="0 0 22 22" fill="none" xmlns="http://www.w3.org/2000/svg">
<path d="M11 21.5C5.20978 21.5 0.5 16.7902 0.5 11C0.5 5.20978 5.20978 0.5 11 0.5C16.7902 0.5 21.5 5.20978 21.5 11C21.5 16.7902 16.7902 21.5 11 21.5ZM11 1.93804C6.00362 1.93804 1.93804 6.00362 1.93804 11C1.93804 15.9964 6.00362 20.062 11 20.062C15.9964 20.062 20.062 15.9964 20.062 11C20.062 6.00362 15.9964 1.93804 11 1.93804Z" fill="#4F5671"/>
<path d="M16.6431 10.1275H5.3569V8.68949H14.462L13.7062 8.12899L14.5609 6.97247L17.0692 8.82899C17.3178 9.01413 17.4218 9.33623 17.3254 9.63297C17.229 9.92971 16.9526 10.1275 16.6431 10.1275ZM7.43915 15.0275L4.93082 13.171C4.68226 12.9859 4.57828 12.6638 4.67466 12.367C4.77103 12.0728 5.04748 11.8725 5.3569 11.8725H16.6431V13.3105H7.53806L8.29386 13.871L7.43915 15.0275Z" fill="#4F5671"/>
</svg>
