<svg width="24" height="24" viewBox="0 0 24 24" fill="none" xmlns="http://www.w3.org/2000/svg">
<path d="M12 8.40194C11.8969 8.40194 11.7948 8.382 11.6995 8.34325C11.6042 8.3045 11.5177 8.24771 11.4447 8.17612C11.3718 8.10452 11.314 8.01952 11.2745 7.92598C11.2351 7.83244 11.2148 7.73218 11.2148 7.63093V6.08728C11.2148 5.8828 11.2975 5.68669 11.4447 5.5421C11.592 5.3975 11.7917 5.31627 12 5.31627C12.2083 5.31627 12.408 5.3975 12.5553 5.5421C12.7025 5.68669 12.7852 5.8828 12.7852 6.08728V7.63093C12.7852 7.73218 12.7649 7.83244 12.7255 7.92598C12.686 8.01952 12.6282 8.10452 12.5553 8.17612C12.4823 8.24771 12.3958 8.3045 12.3005 8.34325C12.2052 8.382 12.1031 8.40194 12 8.40194ZM7.00045 7.80065L8.11164 8.8917C8.18461 8.96334 8.24248 9.04839 8.28197 9.14199C8.32146 9.2356 8.34178 9.33592 8.34178 9.43723C8.34178 9.53855 8.32146 9.63887 8.28197 9.73247C8.24248 9.82607 8.18461 9.91112 8.11164 9.98276C8.03868 10.0544 7.95206 10.1112 7.85673 10.15C7.7614 10.1888 7.65923 10.2087 7.55605 10.2087C7.45286 10.2087 7.35069 10.1888 7.25536 10.15C7.16003 10.1112 7.07341 10.0544 7.00045 9.98276L5.88926 8.8917C5.81629 8.82006 5.75842 8.73501 5.71893 8.64141C5.67944 8.54781 5.65912 8.44749 5.65912 8.34618C5.65912 8.24486 5.67944 8.14454 5.71893 8.05094C5.75842 7.95733 5.81629 7.87229 5.88926 7.80065C5.96222 7.72901 6.04884 7.67218 6.14417 7.63341C6.23949 7.59464 6.34167 7.57468 6.44485 7.57468C6.54804 7.57468 6.65021 7.59464 6.74554 7.63341C6.84087 7.67218 6.92749 7.72901 7.00045 7.80065ZM5.71476 13.0296C5.92323 13.0296 6.12317 13.111 6.27059 13.2557C6.41801 13.4004 6.50082 13.5968 6.50082 13.8015C6.50082 14.0062 6.41801 14.2025 6.27059 14.3472C6.12317 14.492 5.92323 14.5733 5.71476 14.5733H4.14262C3.93414 14.5733 3.73421 14.492 3.58679 14.3472C3.43937 14.2025 3.35656 14.0062 3.35656 13.8015C3.35656 13.5968 3.43937 13.4004 3.58679 13.2557C3.73421 13.111 3.93414 13.0296 4.14262 13.0296H5.71476ZM19.8557 13.0296C20.0642 13.0296 20.2641 13.111 20.4116 13.2557C20.559 13.4004 20.6418 13.5968 20.6418 13.8015C20.6418 14.0062 20.559 14.2025 20.4116 14.3472C20.2641 14.492 20.0642 14.5733 19.8557 14.5733H18.2852C18.0768 14.5733 17.8768 14.492 17.7294 14.3472C17.582 14.2025 17.4992 14.0062 17.4992 13.8015C17.4992 13.5968 17.582 13.4004 17.7294 13.2557C17.8768 13.111 18.0768 13.0296 18.2852 13.0296H19.8574H19.8557ZM18.1107 7.80226C18.2577 7.94682 18.3403 8.14273 18.3403 8.34698C18.3403 8.55124 18.2577 8.74715 18.1107 8.8917L16.9995 9.98276C16.9267 10.0546 16.8402 10.1117 16.7448 10.1506C16.6495 10.1896 16.5472 10.2096 16.444 10.2096C16.3407 10.2096 16.2384 10.1896 16.1431 10.1506C16.0477 10.1117 15.9612 10.0546 15.8884 9.98276C15.8153 9.91115 15.7574 9.82611 15.7179 9.73251C15.6784 9.6389 15.658 9.53856 15.658 9.43723C15.658 9.3359 15.6784 9.23556 15.7179 9.14196C15.7574 9.04835 15.8153 8.96331 15.8884 8.8917L16.9995 7.80065C17.0725 7.72895 17.1591 7.67207 17.2544 7.63326C17.3498 7.59446 17.4519 7.57448 17.5551 7.57448C17.6583 7.57448 17.7605 7.59446 17.8559 7.63326C17.9512 7.67207 18.0378 7.72895 18.1107 7.80065V7.80226ZM19.4491 19.4596C20.7307 17.8421 21.4269 15.8516 21.4279 13.8023C21.4253 11.3478 20.4312 8.99456 18.6637 7.25884C16.8963 5.52311 14.4998 4.54664 12 4.54364C9.50023 4.54664 7.10373 5.52311 5.33628 7.25884C3.56883 8.99456 2.57475 11.3478 2.57213 13.8023C2.57213 15.8534 3.27013 17.8384 4.55088 19.4596H19.4491ZM12 3C13.4445 3 14.8749 3.27937 16.2095 3.82215C17.5441 4.36493 18.7567 5.1605 19.7782 6.16344C20.7996 7.16637 21.6099 8.35702 22.1627 9.66742C22.7155 10.9778 23 12.3823 23 13.8006C23 16.5695 21.93 19.0894 20.1817 21H3.81832C2.00375 19.0254 0.999555 16.4602 1 13.8006C1 10.9361 2.15893 8.18895 4.22183 6.16344C6.28473 4.13792 9.08262 3 12 3ZM11.2592 13.0733C11.6675 12.6708 13.4421 11.5797 13.852 11.9822C14.2603 12.3831 13.1491 14.1255 12.7408 14.528C12.6435 14.6235 12.528 14.6993 12.4009 14.751C12.2738 14.8027 12.1376 14.8293 12 14.8293C11.8624 14.8293 11.7262 14.8027 11.5991 14.751C11.472 14.6993 11.3565 14.6235 11.2592 14.528C11.1619 14.4325 11.0848 14.3191 11.0321 14.1943C10.9795 14.0695 10.9524 13.9357 10.9524 13.8006C10.9524 13.6656 10.9795 13.5318 11.0321 13.407C11.0848 13.2822 11.1619 13.1688 11.2592 13.0733Z" fill="#4F5671"/>
</svg>
