<svg width="18" height="18" viewBox="0 0 18 18" fill="none" xmlns="http://www.w3.org/2000/svg">
<path d="M9 17.75C4.17482 17.75 0.25 13.8252 0.25 9C0.25 4.17482 4.17482 0.25 9 0.25C13.8252 0.25 17.75 4.17482 17.75 9C17.75 13.8252 13.8252 17.75 9 17.75ZM9 1.44837C4.83635 1.44837 1.44837 4.83635 1.44837 9C1.44837 13.1636 4.83635 16.5516 9 16.5516C13.1636 16.5516 16.5516 13.1636 16.5516 9C16.5516 4.83635 13.1636 1.44837 9 1.44837Z" fill="#00AEFC"/>
<path d="M13.7026 8.27293H4.29741V7.07457H11.885L11.2551 6.60748L11.9674 5.64371L14.0577 7.19081C14.2648 7.3451 14.3515 7.61351 14.2711 7.8608C14.1908 8.10808 13.9605 8.27293 13.7026 8.27293ZM6.03262 12.3563L3.94234 10.8092C3.73522 10.6549 3.64856 10.3865 3.72887 10.1392C3.80919 9.89401 4.03956 9.72704 4.29741 9.72704H13.7026V10.9254H6.11505L6.74488 11.3925L6.03262 12.3563Z" fill="#00AEFC"/>
</svg>
