<svg width="24" height="24" viewBox="0 0 24 24" fill="none" xmlns="http://www.w3.org/2000/svg">
<path d="M20.956 12.1259L14.3187 7.6779V4.30073C14.3187 3.53881 13.9121 2.82836 13.2418 2.39592C12.5714 1.96348 11.7143 1.88111 10.956 2.1694L3.59341 4.9288C2.62637 5.28917 2 6.14376 2 7.11161V19.673C2 20.9498 3.10989 22 4.48352 22H19.5165C20.8791 22 22 20.9601 22 19.673V14.0307C22 13.2791 21.6154 12.5583 20.956 12.1259ZM3.31868 19.673V7.11161C3.31868 6.64828 3.61538 6.24672 4.06593 6.07169L11.4286 3.31229C11.5714 3.26081 11.7143 3.22992 11.8571 3.22992C12.0769 3.22992 12.2967 3.2917 12.4835 3.41525C12.8022 3.61088 12.978 3.94036 12.978 4.29043V20.7542H8.8022V15.2045C8.8022 14.8647 8.50549 14.5867 8.14286 14.5867C7.78022 14.5867 7.48352 14.8647 7.48352 15.2045V20.7542H4.48352C3.84615 20.7644 3.31868 20.2702 3.31868 19.673ZM20.6813 19.673C20.6813 20.2702 20.1648 20.7644 19.5165 20.7644H14.3077V9.19145L20.1868 13.1246C20.4945 13.3305 20.6813 13.6703 20.6813 14.0307V19.673Z" fill="#4F5671" stroke="#4F5671" stroke-width="0.2"/>
</svg>
