<svg width="20" height="20" viewBox="0 0 20 20" fill="none" xmlns="http://www.w3.org/2000/svg">
<path d="M17.4633 10.1049L11.9322 6.39824V3.58393C11.9322 2.94899 11.5934 2.35696 11.0348 1.99659C10.4761 1.63622 9.76186 1.56758 9.13 1.80783L2.99446 4.10732C2.1886 4.40763 1.66663 5.11979 1.66663 5.92633V16.3942C1.66663 17.4581 2.59153 18.3333 3.73622 18.3333H16.2637C17.3992 18.3333 18.3333 17.4667 18.3333 16.3942V11.6922C18.3333 11.0659 18.0128 10.4653 17.4633 10.1049ZM2.76553 16.3942V5.92633C2.76553 5.54022 3.01278 5.20559 3.38824 5.05973L9.52377 2.76023C9.64282 2.71733 9.76186 2.69159 9.88091 2.69159C10.0641 2.69159 10.2472 2.74307 10.4029 2.84603C10.6685 3.00906 10.815 3.28362 10.815 3.57535V17.2951H7.33512V12.6704C7.33512 12.3872 7.08787 12.1556 6.78567 12.1556C6.48348 12.1556 6.23622 12.3872 6.23622 12.6704V17.2951H3.73622C3.20509 17.3037 2.76553 16.8918 2.76553 16.3942ZM17.2344 16.3942C17.2344 16.8918 16.804 17.3037 16.2637 17.3037H11.923V7.65953L16.8223 10.9372C17.0787 11.1088 17.2344 11.3919 17.2344 11.6922V16.3942Z" fill="#00AEFC" stroke="#00AEFC" stroke-width="0.2"/>
</svg>
