<svg width="20" height="20" viewBox="0 0 20 20" fill="none" xmlns="http://www.w3.org/2000/svg">
<path fill-rule="evenodd" clip-rule="evenodd" d="M3.96677 1H16.5862C18.2215 1 19.553 2.33148 19.553 3.96677V12.2025C19.5506 13.8378 18.2191 15.1693 16.5838 15.1693H3.96677C2.33148 15.1693 1 13.8378 1 12.2025V3.96677C1 2.33148 2.33148 1 3.96677 1ZM16.5838 13.9826C17.5641 13.9826 18.3639 13.1851 18.3663 12.2025V3.96677C18.3663 2.98417 17.5688 2.18671 16.5862 2.18671H3.96677C2.98417 2.18671 2.18671 2.98417 2.18671 3.96677V12.2025C2.18671 13.1851 2.98417 13.9826 3.96677 13.9826H16.5838ZM13.3892 16.5245C13.3892 16.852 13.1234 17.1178 12.7959 17.1178H7.75473C7.4272 17.1178 7.16138 16.852 7.16138 16.5245C7.16138 16.197 7.4272 15.9311 7.75473 15.9311H12.7959C13.1234 15.9311 13.3892 16.197 13.3892 16.5245ZM4.54588 18.0031H16.0047C16.3322 18.0031 16.5981 18.269 16.5981 18.5965C16.5981 18.924 16.3322 19.1898 16.0047 19.1898H4.54588C4.21835 19.1898 3.95253 18.924 3.95253 18.5965C3.95253 18.269 4.21835 18.0031 4.54588 18.0031ZM9.52008 8.95852C9.31978 8.75823 9.20726 8.48657 9.20726 8.20331C9.20726 7.92005 9.31978 7.64839 9.52008 7.44809C9.72037 7.2478 9.99203 7.13527 10.2753 7.13527C10.5586 7.13527 10.8302 7.2478 11.0305 7.44809C11.2308 7.64839 11.3433 7.92005 11.3433 8.20331C11.3433 8.48657 11.2308 8.75823 11.0305 8.95852C10.8302 9.15882 10.5586 9.27135 10.2753 9.27135C9.99203 9.27135 9.72037 9.15882 9.52008 8.95852ZM5.24793 8.95852C5.04764 8.75823 4.93511 8.48657 4.93511 8.20331C4.93511 7.92005 5.04764 7.64839 5.24793 7.44809C5.44823 7.2478 5.71989 7.13527 6.00315 7.13527C6.28641 7.13527 6.55807 7.2478 6.75836 7.44809C6.95866 7.64839 7.07118 7.92005 7.07118 8.20331C7.07118 8.48657 6.95866 8.75823 6.75836 8.95852C6.55807 9.15882 6.28641 9.27135 6.00315 9.27135C5.71989 9.27135 5.44823 9.15882 5.24793 8.95852ZM13.7922 8.95852C13.5919 8.75823 13.4794 8.48657 13.4794 8.20331C13.4794 7.92005 13.5919 7.64839 13.7922 7.44809C13.9925 7.2478 14.2642 7.13527 14.5474 7.13527C14.8307 7.13527 15.1024 7.2478 15.3027 7.44809C15.5029 7.64839 15.6155 7.92005 15.6155 8.20331C15.6155 8.48657 15.5029 8.75823 15.3027 8.95852C15.1024 9.15882 14.8307 9.27135 14.5474 9.27135C14.2642 9.27135 13.9925 9.15882 13.7922 8.95852Z" fill="#4F5671"/>
<path d="M19.553 12.2025L19.703 12.2027V12.2025H19.553ZM18.3663 12.2025L18.5163 12.2029V12.2025H18.3663ZM9.52008 8.95852L9.62614 8.85246L9.52008 8.95852ZM9.52008 7.44809L9.62614 7.55416V7.55416L9.52008 7.44809ZM11.0305 7.44809L10.9244 7.55416V7.55416L11.0305 7.44809ZM5.24793 7.44809L5.354 7.55416V7.55416L5.24793 7.44809ZM6.75836 7.44809L6.6523 7.55416V7.55416L6.75836 7.44809ZM13.7922 7.44809L13.8983 7.55416V7.55416L13.7922 7.44809ZM15.3027 7.44809L15.1966 7.55416V7.55416L15.3027 7.44809ZM16.5862 0.85H3.96677V1.15H16.5862V0.85ZM19.703 3.96677C19.703 2.24864 18.3043 0.85 16.5862 0.85V1.15C18.1386 1.15 19.403 2.41433 19.403 3.96677H19.703ZM19.703 12.2025V3.96677H19.403V12.2025H19.703ZM16.5838 15.3193C18.302 15.3193 19.7005 13.9206 19.703 12.2027L19.403 12.2023C19.4007 13.7549 18.1362 15.0193 16.5838 15.0193V15.3193ZM3.96677 15.3193H16.5838V15.0193H3.96677V15.3193ZM0.85 12.2025C0.85 13.9206 2.24864 15.3193 3.96677 15.3193V15.0193C2.41433 15.0193 1.15 13.7549 1.15 12.2025H0.85ZM0.85 3.96677V12.2025H1.15V3.96677H0.85ZM3.96677 0.85C2.24864 0.85 0.85 2.24864 0.85 3.96677H1.15C1.15 2.41433 2.41433 1.15 3.96677 1.15V0.85ZM18.2163 12.2021C18.2141 13.1021 17.4813 13.8326 16.5838 13.8326V14.1326C17.6468 14.1326 18.5137 13.2681 18.5163 12.2029L18.2163 12.2021ZM18.2163 3.96677V12.2025H18.5163V3.96677H18.2163ZM16.5862 2.33671C17.486 2.33671 18.2163 3.06702 18.2163 3.96677H18.5163C18.5163 2.90133 17.6516 2.03671 16.5862 2.03671V2.33671ZM3.96677 2.33671H16.5862V2.03671H3.96677V2.33671ZM2.33671 3.96677C2.33671 3.06702 3.06702 2.33671 3.96677 2.33671V2.03671C2.90133 2.03671 2.03671 2.90133 2.03671 3.96677H2.33671ZM2.33671 12.2025V3.96677H2.03671V12.2025H2.33671ZM3.96677 13.8326C3.06702 13.8326 2.33671 13.1023 2.33671 12.2025H2.03671C2.03671 13.2679 2.90133 14.1326 3.96677 14.1326V13.8326ZM16.5838 13.8326H3.96677V14.1326H16.5838V13.8326ZM12.7959 17.2678C13.2062 17.2678 13.5392 16.9349 13.5392 16.5245H13.2392C13.2392 16.7692 13.0406 16.9678 12.7959 16.9678V17.2678ZM7.75473 17.2678H12.7959V16.9678H7.75473V17.2678ZM7.01138 16.5245C7.01138 16.9349 7.34436 17.2678 7.75473 17.2678V16.9678C7.51005 16.9678 7.31138 16.7692 7.31138 16.5245H7.01138ZM7.75473 15.7811C7.34436 15.7811 7.01138 16.1141 7.01138 16.5245H7.31138C7.31138 16.2798 7.51005 16.0811 7.75473 16.0811V15.7811ZM12.7959 15.7811H7.75473V16.0811H12.7959V15.7811ZM13.5392 16.5245C13.5392 16.1141 13.2062 15.7811 12.7959 15.7811V16.0811C13.0406 16.0811 13.2392 16.2798 13.2392 16.5245H13.5392ZM16.0047 17.8531H4.54588V18.1531H16.0047V17.8531ZM16.7481 18.5965C16.7481 18.1861 16.4151 17.8531 16.0047 17.8531V18.1531C16.2494 18.1531 16.4481 18.3518 16.4481 18.5965H16.7481ZM16.0047 19.3398C16.4151 19.3398 16.7481 19.0069 16.7481 18.5965H16.4481C16.4481 18.8412 16.2494 19.0398 16.0047 19.0398V19.3398ZM4.54588 19.3398H16.0047V19.0398H4.54588V19.3398ZM3.80253 18.5965C3.80253 19.0069 4.13551 19.3398 4.54588 19.3398V19.0398C4.30119 19.0398 4.10253 18.8412 4.10253 18.5965H3.80253ZM4.54588 17.8531C4.13551 17.8531 3.80253 18.1861 3.80253 18.5965H4.10253C4.10253 18.3518 4.30119 18.1531 4.54588 18.1531V17.8531ZM9.05726 8.20331C9.05726 8.52635 9.18558 8.83616 9.41401 9.06459L9.62614 8.85246C9.45398 8.68029 9.35725 8.44679 9.35725 8.20331H9.05726ZM9.41401 7.34203C9.18558 7.57045 9.05726 7.88027 9.05726 8.20331H9.35725C9.35725 7.95983 9.45398 7.72633 9.62614 7.55416L9.41401 7.34203ZM10.2753 6.98527C9.95225 6.98527 9.64244 7.1136 9.41401 7.34203L9.62614 7.55416C9.79831 7.38199 10.0318 7.28527 10.2753 7.28527V6.98527ZM11.1366 7.34203C10.9081 7.1136 10.5983 6.98527 10.2753 6.98527V7.28527C10.5188 7.28527 10.7523 7.38199 10.9244 7.55416L11.1366 7.34203ZM11.4933 8.20331C11.4933 7.88027 11.365 7.57045 11.1366 7.34203L10.9244 7.55416C11.0966 7.72633 11.1933 7.95983 11.1933 8.20331H11.4933ZM11.1366 9.06459C11.365 8.83616 11.4933 8.52635 11.4933 8.20331H11.1933C11.1933 8.44679 11.0966 8.68029 10.9244 8.85246L11.1366 9.06459ZM10.2753 9.42134C10.5983 9.42134 10.9081 9.29302 11.1366 9.06459L10.9244 8.85246C10.7523 9.02462 10.5188 9.12135 10.2753 9.12135V9.42134ZM9.41401 9.06459C9.64244 9.29302 9.95225 9.42134 10.2753 9.42134V9.12135C10.0318 9.12135 9.79831 9.02462 9.62614 8.85246L9.41401 9.06459ZM4.78511 8.20331C4.78511 8.52635 4.91344 8.83616 5.14187 9.06459L5.354 8.85246C5.18183 8.68029 5.08511 8.44679 5.08511 8.20331H4.78511ZM5.14187 7.34203C4.91344 7.57045 4.78511 7.88027 4.78511 8.20331H5.08511C5.08511 7.95983 5.18183 7.72633 5.354 7.55416L5.14187 7.34203ZM6.00315 6.98527C5.6801 6.98527 5.37029 7.1136 5.14187 7.34203L5.354 7.55416C5.52616 7.38199 5.75967 7.28527 6.00315 7.28527V6.98527ZM6.86443 7.34203C6.636 7.1136 6.32619 6.98527 6.00315 6.98527V7.28527C6.24663 7.28527 6.48013 7.38199 6.6523 7.55416L6.86443 7.34203ZM7.22118 8.20331C7.22118 7.88027 7.09285 7.57045 6.86443 7.34203L6.6523 7.55416C6.82446 7.72633 6.92118 7.95983 6.92118 8.20331H7.22118ZM6.86443 9.06459C7.09285 8.83616 7.22118 8.52635 7.22118 8.20331H6.92118C6.92118 8.44679 6.82446 8.68029 6.6523 8.85246L6.86443 9.06459ZM6.00315 9.42134C6.32619 9.42134 6.636 9.29302 6.86443 9.06459L6.6523 8.85246C6.48013 9.02462 6.24663 9.12135 6.00315 9.12135V9.42134ZM5.14187 9.06459C5.37029 9.29302 5.6801 9.42134 6.00315 9.42134V9.12135C5.75967 9.12135 5.52616 9.02462 5.354 8.85246L5.14187 9.06459ZM13.3294 8.20331C13.3294 8.52635 13.4577 8.83616 13.6862 9.06459L13.8983 8.85246C13.7261 8.68029 13.6294 8.44679 13.6294 8.20331H13.3294ZM13.6862 7.34203C13.4577 7.57045 13.3294 7.88027 13.3294 8.20331H13.6294C13.6294 7.95983 13.7261 7.72633 13.8983 7.55416L13.6862 7.34203ZM14.5474 6.98527C14.2244 6.98527 13.9146 7.1136 13.6862 7.34203L13.8983 7.55416C14.0704 7.38199 14.304 7.28527 14.5474 7.28527V6.98527ZM15.4087 7.34203C15.1803 7.1136 14.8705 6.98527 14.5474 6.98527V7.28527C14.7909 7.28527 15.0244 7.38199 15.1966 7.55416L15.4087 7.34203ZM15.7655 8.20331C15.7655 7.88027 15.6371 7.57045 15.4087 7.34203L15.1966 7.55416C15.3687 7.72633 15.4655 7.95983 15.4655 8.20331H15.7655ZM15.4087 9.06459C15.6371 8.83616 15.7655 8.52635 15.7655 8.20331H15.4655C15.4655 8.44679 15.3687 8.68029 15.1966 8.85246L15.4087 9.06459ZM14.5474 9.42134C14.8705 9.42134 15.1803 9.29302 15.4087 9.06459L15.1966 8.85246C15.0244 9.02462 14.7909 9.12135 14.5474 9.12135V9.42134ZM13.6862 9.06459C13.9146 9.29302 14.2244 9.42134 14.5474 9.42134V9.12135C14.304 9.12135 14.0704 9.02462 13.8983 8.85246L13.6862 9.06459Z" fill="#4F5671"/>
</svg>
